<svg width="380" height="189" viewBox="0 0 380 189" fill="none" xmlns="http://www.w3.org/2000/svg">
<g clip-path="url(#clip0_1353_11026)">
<path d="M103.548 154.58C113.844 154.58 122.191 146.233 122.191 135.937C122.191 125.642 113.844 117.295 103.548 117.295C93.2527 117.295 84.9062 125.642 84.9062 135.937C84.9062 146.233 93.2527 154.58 103.548 154.58Z" fill="#E4E4E4"/>
<path opacity="0.2" d="M89.7828 123.486C88.0439 127.553 87.8081 132.107 89.1173 136.332C90.4266 140.558 93.1957 144.18 96.9298 146.552C100.664 148.924 105.12 149.89 109.501 149.279C113.882 148.668 117.904 146.519 120.846 143.216C119.784 145.701 118.194 147.926 116.187 149.735C114.18 151.545 111.803 152.897 109.221 153.697C106.64 154.497 103.915 154.726 101.236 154.368C98.5574 154.011 95.9883 153.075 93.707 151.626C91.4256 150.177 89.4866 148.249 88.0242 145.976C86.5618 143.703 85.611 141.14 85.2378 138.463C84.8645 135.786 85.0776 133.06 85.8624 130.474C86.6473 127.888 87.9849 125.503 89.7828 123.486Z" fill="black"/>
<path d="M103.599 135.938H103.65L104.572 188.791H102.625L103.599 135.938Z" fill="#3F3D56"/>
<path d="M65.8298 119.815C86.5881 119.815 103.416 102.987 103.416 82.2287C103.416 61.4705 86.5881 44.6426 65.8298 44.6426C45.0715 44.6426 28.2437 61.4705 28.2437 82.2287C28.2437 102.987 45.0715 119.815 65.8298 119.815Z" fill="#E4E4E4"/>
<path opacity="0.2" d="M38.0765 57.1238C34.5706 65.3248 34.095 74.5053 36.7347 83.0247C39.3744 91.5441 44.9575 98.8473 52.4862 103.629C60.0149 108.411 68.9986 110.36 77.8321 109.128C86.6656 107.896 94.7732 103.563 100.706 96.9039C98.5644 101.914 95.359 106.399 91.3119 110.048C87.2648 113.697 82.4729 116.422 77.268 118.035C72.0631 119.648 66.5699 120.11 61.1687 119.389C55.7676 118.668 50.5878 116.781 45.9882 113.86C41.3885 110.938 37.4791 107.052 34.5306 102.469C31.5822 97.8867 29.6653 92.718 28.9127 87.3212C28.1602 81.9244 28.5899 76.4285 30.1722 71.2143C31.7546 66.0001 34.4516 61.1922 38.0765 57.1238Z" fill="black"/>
<path d="M65.9334 82.2283H66.0369L67.8956 188.791H63.9717L65.9334 82.2283Z" fill="#3F3D56"/>
<path d="M313.636 133.635H141.357V184.706H313.636V133.635Z" fill="#F0F0F0"/>
<path d="M237.54 144.19H217.453V184.706H237.54V144.19Z" fill="#CACACA"/>
<path d="M303.592 73.3716H151.401V120.357H303.592V73.3716Z" fill="#F0F0F0"/>
<path d="M319.021 76.2656H135.972C135.666 76.2656 135.368 76.1742 135.114 76.0032C134.861 75.8321 134.665 75.5893 134.551 75.3058C134.436 75.0223 134.41 74.7112 134.474 74.4124C134.538 74.1136 134.69 73.8407 134.91 73.6289L184.938 25.542V4.59637C184.938 4.19017 185.1 3.80073 185.387 3.5135C185.674 3.22627 186.064 3.06471 186.47 3.06425H196.343C196.75 3.06469 197.139 3.22626 197.426 3.51349C197.714 3.80072 197.875 4.19016 197.876 4.59637V13.1062L201.654 9.47402C207.838 3.53037 216.042 0.147301 224.617 0.00469798C233.193 -0.137905 241.505 2.97052 247.882 8.7053L320.046 73.594C320.276 73.8013 320.438 74.0736 320.511 74.3749C320.583 74.6763 320.563 74.9925 320.452 75.2819C320.341 75.5713 320.145 75.8203 319.889 75.9959C319.634 76.1715 319.331 76.2656 319.021 76.2656Z" fill="#CACACA"/>
<path d="M191.576 85.2883C192.851 85.2883 194.112 85.5393 195.29 86.027C196.467 86.5146 197.537 87.2293 198.438 88.1304C199.339 89.0314 200.053 90.1011 200.541 91.2784C201.029 92.4557 201.28 93.7175 201.28 94.9918V108.1H181.873V94.9918C181.873 93.7175 182.124 92.4557 182.611 91.2784C183.099 90.1011 183.814 89.0314 184.715 88.1304C185.616 87.2293 186.686 86.5146 187.863 86.027C189.04 85.5393 190.302 85.2883 191.576 85.2883Z" fill="white"/>
<path d="M227.496 85.4583C230.07 85.4583 232.538 86.4806 234.358 88.3003C236.177 90.1201 237.2 92.5882 237.2 95.1617V108.27H217.793V95.1617C217.793 92.5882 218.815 90.1201 220.635 88.3003C222.455 86.4806 224.923 85.4583 227.496 85.4583Z" fill="white"/>
<path d="M263.417 85.6287C265.99 85.6287 268.458 86.651 270.278 88.4707C272.098 90.2905 273.12 92.7586 273.12 95.3321V108.44H253.713V95.3321C253.713 92.7586 254.736 90.2905 256.555 88.4707C258.375 86.651 260.843 85.6287 263.417 85.6287Z" fill="white"/>
<path d="M277.716 143.679C280.29 143.679 282.758 144.701 284.577 146.521C286.397 148.341 287.42 150.809 287.42 153.382V166.49H268.013V153.382C268.013 150.809 269.035 148.341 270.855 146.521C272.675 144.701 275.143 143.679 277.716 143.679Z" fill="white"/>
<path d="M181.703 143.679C184.276 143.679 186.745 144.701 188.564 146.521C190.384 148.341 191.406 150.809 191.406 153.382V166.49H172V153.382C172 152.108 172.251 150.846 172.738 149.669C173.226 148.492 173.941 147.422 174.842 146.521C175.743 145.62 176.812 144.905 177.99 144.417C179.167 143.93 180.429 143.679 181.703 143.679Z" fill="white"/>
<path d="M338.806 134.432L306.488 120.133C306.315 120.056 306.127 120.016 305.937 120.016H151.917C151.742 120.016 151.567 120.05 151.405 120.116L116.227 134.416C115.934 134.535 115.692 134.752 115.542 135.03C115.392 135.308 115.343 135.629 115.403 135.939C115.464 136.249 115.63 136.528 115.874 136.729C116.118 136.93 116.424 137.04 116.74 137.04H125.867V184.025H124.845V188.791H330.15V184.025H328.447V137.04H338.255C338.567 137.04 338.87 136.932 339.113 136.736C339.355 136.539 339.523 136.265 339.587 135.959C339.652 135.654 339.609 135.335 339.467 135.057C339.325 134.779 339.091 134.559 338.806 134.432ZM325.723 184.025H128.59V137.04H325.723V184.025Z" fill="#CACACA"/>
<path d="M203.663 106.227H178.809V110.313H203.663V106.227Z" fill="#CACACA"/>
<path d="M240.093 106.227H215.239V110.313H240.093V106.227Z" fill="#CACACA"/>
<path d="M276.525 106.227H251.67V110.313H276.525V106.227Z" fill="#CACACA"/>
<path d="M290.143 165.128H265.288V169.214H290.143V165.128Z" fill="#CACACA"/>
<path d="M193.79 165.128H168.936V169.214H193.79V165.128Z" fill="#CACACA"/>
<path d="M378.834 189H0.417219C0.306565 189 0.200444 188.956 0.1222 188.878C0.0439565 188.8 0 188.693 0 188.583C0 188.472 0.0439565 188.366 0.1222 188.288C0.200444 188.209 0.306565 188.166 0.417219 188.166H378.834C378.945 188.166 379.051 188.209 379.129 188.288C379.208 188.366 379.252 188.472 379.252 188.583C379.252 188.693 379.208 188.8 379.129 188.878C379.051 188.956 378.945 189 378.834 189Z" fill="#3F3D56"/>
<path d="M283.653 72.671C283.653 72.9381 283.648 73.2092 283.644 73.4763C283.64 73.7975 283.632 74.1146 283.619 74.4358C283.607 74.7154 283.594 74.9908 283.577 75.2661C283.527 76.1882 283.448 77.1061 283.34 78.0281C283.315 78.2617 283.285 78.4912 283.252 78.7248C283.227 78.9043 283.202 79.0879 283.173 79.2714C283.144 79.4759 283.114 79.6803 283.081 79.8847C283.014 80.3187 282.939 80.7526 282.856 81.1865C282.814 81.4034 282.772 81.6204 282.726 81.8373C282.639 82.267 282.543 82.701 282.443 83.1307C282.434 83.1641 282.426 83.2016 282.418 83.235C282.368 83.4478 282.317 83.6564 282.263 83.8692C282.247 83.9317 282.234 83.9902 282.213 84.0527C282.176 84.2113 282.134 84.3698 282.092 84.5284C282.034 84.7495 281.975 84.9664 281.913 85.1876C281.813 85.5297 281.713 85.8677 281.608 86.2098C281.595 86.2453 281.584 86.2815 281.575 86.3183C281.375 86.9649 281.162 87.6033 280.928 88.2375C280.807 88.5712 280.678 88.9092 280.549 89.2429C280.419 89.5767 280.286 89.9105 280.148 90.2401C280.014 90.5614 279.877 90.8826 279.739 91.1997C279.706 91.2748 279.672 91.3499 279.635 91.425C279.489 91.7546 279.338 92.0758 279.184 92.3971C279.18 92.4013 279.18 92.4096 279.176 92.4138C279.055 92.6725 278.925 92.9312 278.796 93.1857C278.796 93.1934 278.793 93.2008 278.788 93.2065C278.663 93.4569 278.533 93.7072 278.4 93.9533L278.187 94.358L278.162 94.404C277.895 94.9004 277.62 95.3928 277.327 95.8809C277.265 95.9894 277.202 96.0978 277.14 96.2021C277.077 96.3106 277.011 96.4191 276.944 96.5234C276.902 96.5985 276.856 96.6736 276.806 96.7487C276.718 96.8905 276.631 97.0366 276.539 97.1784C276.522 97.2076 276.501 97.2368 276.485 97.266C276.326 97.5122 276.168 97.7542 276.009 98.0003C275.813 98.2965 275.613 98.5886 275.408 98.8807L270.877 106.132L270.681 105.969L270.627 105.919H270.623L270.443 105.769L269.951 105.352C269.801 105.498 269.655 105.644 269.505 105.786C269.446 105.844 269.384 105.898 269.325 105.957C269.279 105.998 269.238 106.04 269.192 106.082C261.358 113.731 250.939 118.161 239.995 118.494H239.982C231.698 118.722 223.497 116.786 216.188 112.878C216.026 112.795 215.867 112.711 215.708 112.615C214.757 112.098 213.827 111.552 212.913 110.967C212.909 110.963 212.905 110.963 212.901 110.959C211.841 110.208 210.806 109.407 209.797 108.556C204.38 103.99 200.095 98.2317 197.276 91.7321C194.458 85.2324 193.184 78.1684 193.554 71.0938C193.567 70.8143 193.583 70.5389 193.604 70.2594C193.671 69.2497 193.774 68.2442 193.913 67.2429C193.951 66.9633 193.992 66.6838 194.034 66.4084H283.227C283.402 67.6851 283.523 68.9688 283.59 70.2594C283.632 71.0647 283.653 71.8658 283.653 72.671Z" fill="#F0F0F0"/>
<path d="M283.227 66.4086C281.621 55.7301 276.237 45.9822 268.053 38.9371C259.869 31.8919 249.429 28.0171 238.63 28.0171C227.832 28.0171 217.392 31.8919 209.208 38.9371C201.024 45.9822 195.64 55.7301 194.034 66.4086C193.992 66.684 193.951 66.9636 193.913 67.2431C193.775 68.2444 193.672 69.2499 193.604 70.2596H283.59C283.523 68.9704 283.402 67.6867 283.227 66.4086Z" fill="#17456B"/>
<path d="M241.552 112.877H215.711V92.2054C216.188 82.7583 224.262 81.9955 231.849 82.5025C233.123 82.5024 234.385 82.7533 235.562 83.2409C236.739 83.7284 237.809 84.4431 238.71 85.3442C239.611 86.2452 240.326 87.3148 240.814 88.4921C241.301 89.6694 241.552 90.9311 241.552 92.2054V112.877Z" fill="#17456B"/>
<path d="M215.708 98.1798V98.184C215.708 98.1881 215.713 98.1881 215.717 98.1881L215.708 98.1798ZM205.316 66.4086C205.299 66.5129 205.278 66.6172 205.261 66.7215C205.278 66.6172 205.299 66.5129 205.32 66.4086H205.316ZM204.798 70.2595C204.786 70.4181 204.773 70.5766 204.765 70.7352C204.773 70.5766 204.786 70.4181 204.802 70.2595C204.802 70.2303 204.803 70.201 204.807 70.1719C204.802 70.2011 204.802 70.2303 204.798 70.2595ZM215.708 98.184C215.708 98.1881 215.713 98.1881 215.717 98.1881L215.708 98.1798V98.184ZM205.316 66.4086C205.299 66.5129 205.278 66.6172 205.261 66.7215C205.278 66.6172 205.299 66.5129 205.32 66.4086H205.316ZM204.765 70.7352C204.773 70.5766 204.786 70.4181 204.802 70.2595C204.802 70.2303 204.803 70.201 204.807 70.1719C204.802 70.2011 204.802 70.2303 204.798 70.2595C204.786 70.4181 204.773 70.5766 204.765 70.7352ZM333.66 147.487C333.579 147.401 333.493 147.32 333.402 147.245L333.398 147.241L312.737 129.805L312.203 129.354L310.171 127.64L309.662 127.21L306.766 124.765L305.974 124.097L304.334 122.712L303.496 122.003L295.585 115.332L291.05 111.506L290.441 110.993L277.077 99.7152C277.282 99.4231 277.482 99.1311 277.678 98.8348C277.837 98.5887 277.995 98.3467 278.154 98.1005C278.17 98.0714 278.191 98.0421 278.208 98.0129C278.3 97.871 278.387 97.725 278.475 97.5832C278.525 97.5081 278.571 97.433 278.613 97.3579C278.679 97.2536 278.746 97.1451 278.809 97.0366C278.871 96.9323 278.934 96.8239 278.996 96.7154C279.288 96.2273 279.564 95.7349 279.831 95.2385L279.856 95.1925L280.069 94.7878C280.202 94.5417 280.332 94.2914 280.457 94.041C280.462 94.0353 280.465 94.0279 280.465 94.0202C280.594 93.7657 280.724 93.507 280.845 93.2483C280.849 93.2441 280.849 93.2358 280.853 93.2316C281.007 92.9104 281.158 92.5891 281.304 92.2595C281.341 92.1844 281.375 92.1093 281.408 92.0342C281.546 91.7171 281.683 91.3959 281.817 91.0746C281.954 90.745 282.088 90.4112 282.217 90.0774C282.347 89.7437 282.476 89.4058 282.597 89.072C282.826 88.4336 283.042 87.7939 283.244 87.1528C283.253 87.116 283.264 87.0798 283.277 87.0443C283.381 86.7022 283.481 86.3642 283.582 86.0221C283.644 85.8009 283.703 85.584 283.761 85.3629C283.803 85.2043 283.844 85.0458 283.882 84.8873C283.903 84.8247 283.915 84.7663 283.932 84.7037C283.986 84.4909 284.036 84.2823 284.086 84.0695C284.095 84.0361 284.103 83.9986 284.112 83.9652C284.212 83.5355 284.308 83.1016 284.395 82.6718C284.441 82.4549 284.483 82.2379 284.524 82.021C284.604 81.5871 284.683 81.1532 284.75 80.7193C284.783 80.5148 284.812 80.3104 284.842 80.106C284.871 79.9224 284.896 79.7388 284.921 79.5594C284.954 79.3258 284.983 79.0963 285.009 78.8627C285.117 77.9406 285.196 77.0227 285.246 76.1006C285.263 75.8253 285.276 75.5499 285.288 75.2703C285.301 74.9491 285.309 74.632 285.313 74.3108C285.317 74.0438 285.321 73.7726 285.321 73.5055C285.321 72.7003 285.301 71.8992 285.259 71.094C285.192 69.8048 285.071 68.5212 284.896 67.2431C283.401 56.3181 278.024 46.2959 269.749 39.0084C261.474 31.7209 250.852 27.655 239.826 27.5537C228.799 27.4524 218.105 31.3226 209.697 38.4569C201.289 45.5911 195.729 55.5129 194.034 66.4086C193.992 66.684 193.951 66.9635 193.913 67.2431C193.775 68.2444 193.672 69.2499 193.604 70.2596C193.583 70.5391 193.567 70.8145 193.554 71.094C193.184 78.1686 194.458 85.2326 197.276 91.7322C200.095 98.2318 204.38 103.99 209.797 108.556C210.806 109.407 211.841 110.208 212.901 110.959C212.905 110.963 212.909 110.963 212.913 110.968C213.268 111.218 213.622 111.464 213.981 111.706C214.553 112.082 215.129 112.449 215.708 112.799C215.754 112.824 215.8 112.853 215.846 112.878C216.347 113.179 216.852 113.467 217.357 113.746H217.361C219.24 114.779 221.191 115.677 223.198 116.433C229.086 118.649 235.367 119.634 241.651 119.329H241.664C248.998 118.974 256.14 116.86 262.487 113.166C263.409 112.632 264.319 112.061 265.207 111.452C265.428 111.301 265.654 111.147 265.871 110.993C266.138 110.805 266.405 110.609 266.672 110.413C266.676 110.413 266.676 110.408 266.68 110.408C266.7 110.392 266.721 110.377 266.743 110.363C266.922 110.225 267.106 110.087 267.281 109.954C267.327 109.92 267.373 109.887 267.419 109.849C267.431 109.841 267.442 109.831 267.452 109.82C267.556 109.745 267.656 109.662 267.761 109.582C267.865 109.503 267.965 109.42 268.069 109.336C268.087 109.325 268.104 109.313 268.12 109.299C268.236 109.203 268.353 109.111 268.47 109.015C268.591 108.919 268.708 108.819 268.82 108.723C268.937 108.627 269.05 108.531 269.167 108.431C269.267 108.347 269.371 108.26 269.471 108.168C269.505 108.143 269.534 108.114 269.567 108.085C269.58 108.072 269.594 108.061 269.609 108.051C269.747 107.934 269.88 107.813 270.014 107.692C270.047 107.663 270.076 107.634 270.11 107.605C270.314 107.421 270.519 107.238 270.719 107.046C270.765 107.004 270.815 106.958 270.861 106.916C270.907 106.875 270.948 106.833 270.994 106.791C271.053 106.733 271.115 106.679 271.174 106.62C271.324 106.478 271.47 106.332 271.62 106.186L272.112 106.603L272.292 106.754H272.296L272.35 106.804L272.546 106.966L275.458 109.428L275.521 109.482L275.571 109.52L275.901 109.799L276.56 110.358L277.219 110.913L277.315 110.993L280.382 113.579L280.807 113.938L283.765 116.433L299.077 129.354L299.611 129.805L320.568 147.487L325.942 152.022L327.94 153.707C328.364 154.066 328.855 154.338 329.385 154.507C329.914 154.676 330.471 154.74 331.025 154.693C331.579 154.647 332.118 154.491 332.612 154.236C333.105 153.981 333.544 153.631 333.902 153.207C334.202 152.854 334.441 152.454 334.607 152.022C334.91 151.256 334.982 150.418 334.814 149.612C334.645 148.806 334.244 148.067 333.66 147.487ZM212.805 50.7713C216.99 45.8111 222.494 42.1364 228.679 40.1714C234.865 38.2065 241.48 38.0316 247.761 39.6669C254.042 41.3022 259.732 44.681 264.174 49.413C268.616 54.145 271.628 60.0371 272.863 66.4086C272.918 66.6882 272.968 66.9635 273.013 67.2431C273.185 68.2402 273.31 69.2499 273.385 70.2595C273.406 70.5391 273.427 70.8144 273.439 71.094C273.477 71.7198 273.493 72.3498 273.493 72.9756C273.496 76.7719 272.867 80.5421 271.632 84.1321V84.1362C270.253 88.1614 268.135 91.894 265.387 95.1425C265.328 95.2092 265.27 95.2802 265.207 95.3469C264.657 95.9978 264.077 96.6236 263.48 97.2203C263.476 97.2244 263.472 97.2328 263.468 97.2369C263.263 97.4414 263.054 97.65 262.846 97.8419C262.42 98.255 261.986 98.6471 261.544 99.0226C260.881 99.6026 260.201 100.146 259.504 100.654C259.27 100.825 259.037 100.992 258.799 101.159C258.565 101.326 258.327 101.484 258.09 101.643C257.614 101.96 257.13 102.264 256.642 102.552C256.4 102.698 256.149 102.84 255.903 102.978C255.657 103.12 255.407 103.253 255.156 103.383C254.906 103.516 254.656 103.645 254.401 103.771C253.896 104.025 253.387 104.263 252.87 104.484C252.612 104.601 252.353 104.709 252.094 104.809C251.931 104.876 251.773 104.943 251.61 105.001C251.547 105.031 251.481 105.056 251.414 105.076C251.326 105.114 251.239 105.147 251.151 105.177C251.123 105.19 251.093 105.201 251.064 105.21C250.884 105.281 250.709 105.344 250.525 105.406C250.263 105.502 250 105.59 249.733 105.673C249.466 105.761 249.203 105.844 248.936 105.919C248.669 106.003 248.398 106.078 248.13 106.149C247.859 106.224 247.592 106.295 247.321 106.357C247.033 106.432 246.745 106.499 246.453 106.562C246.199 106.62 245.948 106.67 245.694 106.716C245.456 106.766 245.214 106.808 244.976 106.85C244.643 106.908 244.309 106.962 243.971 107.008C243.787 107.037 243.608 107.062 243.424 107.079C243.345 107.092 243.27 107.1 243.195 107.108C242.961 107.142 242.728 107.167 242.498 107.188C242.436 107.192 242.377 107.2 242.319 107.204C242.064 107.229 241.805 107.25 241.551 107.271C241.004 107.309 240.462 107.334 239.915 107.346C239.64 107.35 239.361 107.354 239.085 107.354C238.81 107.354 238.534 107.35 238.259 107.342C238.259 107.342 238.259 107.346 238.255 107.342C238.251 107.346 238.251 107.346 238.247 107.342C238.246 107.343 238.245 107.343 238.245 107.343C238.244 107.344 238.243 107.344 238.242 107.344C238.242 107.344 238.241 107.344 238.24 107.343C238.239 107.343 238.239 107.343 238.238 107.342C238.225 107.346 238.21 107.346 238.197 107.342C238.001 107.342 237.804 107.334 237.612 107.321C237.471 107.317 237.325 107.313 237.179 107.3C236.983 107.292 236.786 107.279 236.59 107.263C236.528 107.263 236.465 107.254 236.403 107.25C236.373 107.25 236.344 107.247 236.315 107.242C236.115 107.225 235.91 107.208 235.71 107.188C235.61 107.179 235.506 107.171 235.405 107.158C235.101 107.125 234.796 107.087 234.496 107.046C234.154 107.004 233.812 106.954 233.474 106.891C233.315 106.871 233.161 106.841 233.006 106.812C232.802 106.779 232.598 106.741 232.393 106.699C232.18 106.658 231.968 106.616 231.755 106.566C231.584 106.528 231.408 106.491 231.237 106.449C231.154 106.432 231.07 106.412 230.991 106.391C230.553 106.286 230.119 106.174 229.689 106.049C229.418 105.974 229.147 105.894 228.88 105.811C228.513 105.698 228.15 105.577 227.787 105.448C227.645 105.402 227.507 105.352 227.365 105.298C227.224 105.252 227.086 105.198 226.944 105.143C226.815 105.097 226.685 105.047 226.56 104.997C226.352 104.918 226.147 104.835 225.943 104.751C225.521 104.58 225.108 104.401 224.695 104.209C224.462 104.096 224.228 103.988 223.999 103.875C223.093 103.437 222.202 102.95 221.324 102.415C221.107 102.285 220.89 102.148 220.673 102.01C220.402 101.843 220.139 101.668 219.877 101.493C219.73 101.392 219.589 101.297 219.447 101.196C219.184 101.013 218.925 100.825 218.671 100.637C218.537 100.541 218.404 100.441 218.274 100.341C217.811 99.9906 217.356 99.6235 216.91 99.248C216.697 99.0686 216.484 98.885 216.276 98.6973C216.188 98.6221 216.101 98.5428 216.013 98.4636C215.913 98.3718 215.813 98.2841 215.717 98.1881L215.708 98.1798C215.563 98.0505 215.416 97.9128 215.274 97.7752C215.053 97.5666 214.836 97.3538 214.628 97.1369C214.411 96.9241 214.202 96.703 213.998 96.486C213.789 96.269 213.589 96.0479 213.393 95.8226C213.193 95.6015 212.997 95.3762 212.805 95.1467C212.617 94.9298 212.433 94.7045 212.258 94.4833C211.832 93.9576 211.426 93.4222 211.04 92.877C210.86 92.6267 210.689 92.3763 210.522 92.1219C210.343 91.8632 210.172 91.6004 210.009 91.3375C209.838 91.0747 209.675 90.8076 209.517 90.5364C209.513 90.5272 209.507 90.5187 209.5 90.5114C209.187 89.9815 208.887 89.4475 208.607 88.9051C208.319 88.3544 208.048 87.7981 207.794 87.2362C207.665 86.9567 207.539 86.673 207.423 86.3893C207.18 85.8177 206.955 85.2461 206.747 84.6661C206.642 84.3866 206.546 84.1071 206.45 83.8233C206.447 83.8046 206.442 83.7864 206.434 83.7692C206.242 83.1933 206.067 82.6135 205.912 82.0294C205.908 82.021 205.908 82.0127 205.904 82.0044C205.825 81.7164 205.749 81.4285 205.683 81.1365C205.616 80.882 205.558 80.6275 205.503 80.3688C205.441 80.0809 205.378 79.7931 205.324 79.501C205.295 79.3508 205.266 79.2006 205.24 79.0504C205.215 78.9252 205.194 78.7959 205.174 78.6708C205.153 78.5456 205.132 78.4162 205.111 78.2869C205.069 78.0324 205.032 77.7779 204.998 77.5234C204.957 77.223 204.923 76.9226 204.89 76.618C204.852 76.255 204.819 75.892 204.79 75.5249C204.769 75.2787 204.756 75.0284 204.744 74.7781C204.731 74.5486 204.719 74.3192 204.715 74.0897C204.711 74.0775 204.711 74.0643 204.715 74.0521C204.714 74.0516 204.714 74.051 204.713 74.0502C204.713 74.0495 204.713 74.0488 204.713 74.048C204.713 74.0472 204.713 74.0464 204.713 74.0457C204.714 74.045 204.714 74.0443 204.715 74.0438C204.711 74.0396 204.711 74.0396 204.715 74.0354C204.714 74.0349 204.714 74.0343 204.713 74.0335C204.713 74.0328 204.713 74.0321 204.713 74.0313C204.713 74.0305 204.713 74.0297 204.713 74.029C204.714 74.0283 204.714 74.0276 204.715 74.0271C204.711 73.9353 204.706 73.8436 204.706 73.7518C204.698 73.4806 204.694 73.2094 204.694 72.9382C204.694 72.692 204.698 72.45 204.702 72.2039C204.711 71.8618 204.723 71.5196 204.74 71.1775C204.74 71.1024 204.748 71.0315 204.752 70.9564C204.756 70.8813 204.761 70.8103 204.765 70.7352C204.773 70.5766 204.786 70.4181 204.802 70.2595C204.802 70.2303 204.803 70.201 204.807 70.1719C204.819 69.9925 204.836 69.8132 204.852 69.6338C204.886 69.275 204.928 68.912 204.973 68.5532C204.998 68.3738 205.019 68.1944 205.049 68.015C205.065 67.8898 205.086 67.7605 205.107 67.6311C205.124 67.5018 205.144 67.3725 205.17 67.2431C205.199 67.0721 205.228 66.8968 205.261 66.7215C205.278 66.6172 205.299 66.5129 205.32 66.4086C205.399 65.9914 205.487 65.5743 205.582 65.157C205.678 64.7357 205.787 64.3184 205.904 63.9012C206.016 63.4798 206.142 63.0584 206.275 62.637C206.338 62.4243 206.404 62.2157 206.48 62.007C206.617 61.5857 206.763 61.1684 206.926 60.7554C207.001 60.551 207.08 60.3423 207.168 60.1379C207.335 59.7249 207.51 59.3118 207.689 58.9071C207.781 58.7027 207.873 58.4982 207.973 58.2938C208.161 57.8891 208.357 57.4844 208.57 57.088C208.774 56.6833 208.995 56.287 209.221 55.8948C209.446 55.5026 209.68 55.1104 209.926 54.7224C210.038 54.5305 210.164 54.3344 210.293 54.1467C210.543 53.7628 210.806 53.379 211.073 53.0035C211.611 52.244 212.191 51.4972 212.805 50.7713ZM204.798 70.2595C204.786 70.4181 204.773 70.5766 204.765 70.7352C204.773 70.5766 204.786 70.4181 204.802 70.2595C204.802 70.2303 204.803 70.201 204.807 70.1719C204.802 70.2011 204.802 70.2303 204.798 70.2595ZM205.316 66.4086C205.299 66.5129 205.278 66.6172 205.261 66.7215C205.278 66.6172 205.299 66.5129 205.32 66.4086H205.316ZM215.708 98.1798V98.184C215.708 98.1881 215.713 98.1881 215.717 98.1881L215.708 98.1798Z" fill="#3F3D56"/>
<path opacity="0.3" d="M216.911 99.2475C210.312 93.6786 206.048 85.8315 204.967 77.2645C203.885 68.6975 206.065 60.0371 211.074 53.0029C210.416 53.6653 209.78 54.359 209.166 55.0841C206.253 58.5366 204.048 62.5292 202.678 66.8338C201.308 71.1385 200.799 75.6708 201.18 80.1721C201.561 84.6735 202.825 89.0556 204.9 93.0684C206.975 97.0811 209.82 100.646 213.273 103.559C220.246 109.443 229.27 112.315 238.361 111.545C247.452 110.775 255.864 106.425 261.748 99.4524C262.36 98.7264 262.937 97.9829 263.478 97.2219C257.387 103.342 249.217 106.948 240.59 107.323C231.963 107.699 223.511 104.816 216.911 99.2475Z" fill="black"/>
</g>
<defs>
<clipPath id="clip0_1353_11026">
<rect width="379.252" height="189" fill="white"/>
</clipPath>
</defs>
</svg>
