<svg width="233" height="272" viewBox="0 0 233 272" fill="none" xmlns="http://www.w3.org/2000/svg">
<g clip-path="url(#clip0_1355_10784)">
<path d="M225.431 100.149H7.32992C5.38659 100.147 3.5235 99.3737 2.14936 97.9995C0.775218 96.6254 0.00224392 94.7623 0 92.819V7.32991C0.00224392 5.38659 0.775218 3.5235 2.14936 2.14936C3.5235 0.775218 5.38659 0.00224392 7.32992 0H225.431C227.374 0.00224392 229.237 0.775218 230.611 2.14936C231.985 3.5235 232.758 5.38659 232.76 7.32991V92.819C232.758 94.7623 231.985 96.6254 230.611 97.9995C229.237 99.3737 227.374 100.147 225.431 100.149Z" fill="#F2F2F2"/>
<path d="M174.565 95.474H41.9502C32.068 95.4629 22.5937 91.5322 15.6059 84.5444C8.61806 77.5566 4.68742 68.0823 4.67627 58.2V41.953C4.68741 32.0707 8.61804 22.5963 15.6059 15.6085C22.5937 8.62062 32.068 4.68992 41.9502 4.67871H190.812C200.694 4.68992 210.168 8.62062 217.156 15.6085C224.144 22.5963 228.075 32.0707 228.086 41.953C228.07 56.1427 222.426 69.7467 212.392 79.7803C202.358 89.814 188.755 95.458 174.565 95.474Z" fill="white"/>
<path d="M140.355 29.1511H52.6956C52.1942 29.1511 51.7134 28.952 51.3589 28.5975C51.0043 28.2429 50.8052 27.7621 50.8052 27.2608C50.8052 26.7594 51.0043 26.2786 51.3589 25.924C51.7134 25.5695 52.1942 25.3704 52.6956 25.3704H140.355C140.857 25.3704 141.338 25.5695 141.692 25.924C142.047 26.2786 142.246 26.7594 142.246 27.2608C142.246 27.7621 142.047 28.2429 141.692 28.5975C141.338 28.952 140.857 29.1511 140.355 29.1511Z" fill="#E6E6E6"/>
<path d="M184.73 49.3206H52.6956C52.1942 49.3206 51.7134 49.1214 51.3589 48.7669C51.0043 48.4124 50.8052 47.9315 50.8052 47.4302C50.8052 46.9288 51.0043 46.448 51.3589 46.0935C51.7134 45.739 52.1942 45.5398 52.6956 45.5398H184.73C185.232 45.5398 185.713 45.739 186.067 46.0935C186.422 46.448 186.621 46.9288 186.621 47.4302C186.621 47.9315 186.422 48.4124 186.067 48.7669C185.713 49.1214 185.232 49.3206 184.73 49.3206Z" fill="#E6E6E6"/>
<path d="M184.73 69.4898H52.6956C52.1942 69.4898 51.7134 69.2906 51.3589 68.9361C51.0043 68.5816 50.8052 68.1007 50.8052 67.5994C50.8052 67.098 51.0043 66.6172 51.3589 66.2627C51.7134 65.9081 52.1942 65.709 52.6956 65.709H184.73C185.232 65.709 185.713 65.9081 186.067 66.2627C186.422 66.6172 186.621 67.098 186.621 67.5994C186.621 68.1007 186.422 68.5816 186.067 68.9361C185.713 69.2906 185.232 69.4898 184.73 69.4898Z" fill="#E6E6E6"/>
<path d="M184.73 69.4898H52.6956C52.1942 69.4898 51.7134 69.2906 51.3589 68.9361C51.0043 68.5816 50.8052 68.1007 50.8052 67.5994C50.8052 67.098 51.0043 66.6172 51.3589 66.2627C51.7134 65.9081 52.1942 65.709 52.6956 65.709H184.73C185.232 65.709 185.713 65.9081 186.067 66.2627C186.422 66.6172 186.621 67.098 186.621 67.5994C186.621 68.1007 186.422 68.5816 186.067 68.9361C185.713 69.2906 185.232 69.4898 184.73 69.4898Z" fill="#E6E6E6"/>
<path d="M131.105 51.6355C131.126 52.2049 131.272 52.7628 131.532 53.2698C131.792 53.7769 132.16 54.2208 132.61 54.5702C133.06 54.9197 133.581 55.1662 134.137 55.2925C134.692 55.4187 135.269 55.4216 135.826 55.3009L143.035 67.1277L146.103 60.6168L138.787 50.3841C138.522 49.462 137.928 48.6691 137.118 48.1556C136.308 47.6421 135.337 47.4436 134.39 47.5979C133.443 47.7521 132.586 48.2483 131.981 48.9925C131.375 49.7366 131.064 50.677 131.105 51.6355Z" fill="#FFB6B6"/>
<path d="M185.205 85.5302L160.361 72.0541L152.524 64.702C152.524 64.702 149.118 63.7899 150.372 62.6822C151.625 61.5745 148.052 60.5062 148.052 60.5062L143.845 56.5593L137.868 60.789L139.598 63.4707C139.598 63.4707 139.479 67.9103 141.911 67.0562C144.343 66.2021 143.735 69.8841 143.735 69.8841L158.251 92.3865L185.205 85.5302Z" fill="#3F3D56"/>
<path d="M111.868 72.8337C125.27 72.8337 136.135 61.969 136.135 48.5667C136.135 35.1645 125.27 24.2998 111.868 24.2998C98.4658 24.2998 87.6011 35.1645 87.6011 48.5667C87.6011 61.969 98.4658 72.8337 111.868 72.8337Z" fill="#17456B"/>
<path d="M185.282 262.285H180.237L177.835 242.823H185.282V262.285Z" fill="#FFB6B6"/>
<path d="M187.946 271.028H184.327L183.681 267.612L182.027 271.028H172.43C171.97 271.028 171.522 270.881 171.151 270.608C170.781 270.336 170.507 269.952 170.37 269.513C170.233 269.074 170.24 268.602 170.39 268.167C170.54 267.732 170.826 267.357 171.204 267.095L178.868 261.802V258.349L186.929 258.83L187.946 271.028Z" fill="#2F2E41"/>
<path d="M144.927 262.285H139.881L137.48 242.823H144.927V262.285Z" fill="#FFB6B6"/>
<path d="M147.59 271.028H143.971L143.325 267.612L141.671 271.028H132.074C131.614 271.028 131.166 270.881 130.795 270.608C130.425 270.336 130.151 269.952 130.014 269.513C129.877 269.074 129.884 268.602 130.034 268.167C130.184 267.732 130.47 267.357 130.848 267.095L138.512 261.802V258.349L146.573 258.83L147.59 271.028Z" fill="#2F2E41"/>
<path d="M179.928 115.095H154.461V144.089H179.928V115.095Z" fill="#FFB6B6"/>
<path d="M155.049 129.396L150.739 134.49L143.295 150.162L124.537 194.792L120.57 204.231L123.774 220.916C123.774 220.916 124.292 232.671 124.292 234.596C124.292 238.514 127.569 240.685 127.569 240.685L129.974 253.206L153.286 252.227C153.286 252.227 152.472 238.424 147.59 234.943C142.707 231.461 140.463 213.316 140.463 213.316L137.81 205.266L163.669 174.613L163.836 185.327L163.916 190.514C163.916 190.514 160.13 224.245 164.544 230.792C168.958 237.338 164.634 236.568 164.634 236.568L164.844 250.072L192.466 250.268L186.372 211.39C186.372 211.39 183.278 208.947 184.934 206.491C186.589 204.035 183.329 201.027 183.329 201.027L184.791 170.676C184.791 170.676 183.172 165.434 185.077 164.752C186.981 164.071 185.327 159.563 185.327 159.563L185.61 153.688L179.929 135.469L155.049 129.396Z" fill="#2F2E41"/>
<path d="M180.32 115.095L183.063 106.867L185.022 104.125L185.805 96.2888C185.805 75.1314 181.086 78.6545 181.086 78.6545L178.361 71.2133L165.823 70.8215L157.791 78.4617L151.131 80.8125L148.522 94.3651L153.286 108.826L154.461 116.663C152.219 120.802 152.409 118.844 154.265 121.952L176.402 128.025C184.238 130.767 184.238 123.715 182.667 121.952C181.096 120.189 180.32 115.095 180.32 115.095Z" fill="#3F3D56"/>
<path d="M170.473 68.1914C176.892 68.1914 182.096 62.9876 182.096 56.5685C182.096 50.1493 176.892 44.9456 170.473 44.9456C164.054 44.9456 158.85 50.1493 158.85 56.5685C158.85 62.9876 164.054 68.1914 170.473 68.1914Z" fill="#FFB6B6"/>
<path d="M185.989 72.0833C186.099 72.2681 186.165 72.4752 186.184 72.6892C186.202 72.9032 186.172 73.1185 186.095 73.3193C186.019 73.52 185.898 73.7009 185.742 73.8484C185.586 73.996 185.399 74.1065 185.194 74.1716C183.635 74.6888 182.675 76.1972 181.554 77.404C180.438 78.6068 178.639 79.6059 177.213 78.787C175.791 77.9721 175.693 75.8916 174.502 74.7632C173.342 73.6662 171.414 73.7994 170.051 74.6339L170.01 74.659C169.775 74.8125 169.5 74.8935 169.219 74.8923C168.938 74.891 168.663 74.8074 168.429 74.6518C168.195 74.4962 168.012 74.2755 167.902 74.0169C167.792 73.7583 167.761 73.4732 167.811 73.1968C168.289 70.6561 168.767 68.1156 169.244 65.5754C167.99 68.5964 166.169 71.3494 163.88 73.6858C163.249 74.4134 162.45 74.9757 161.553 75.3235C160.738 75.5821 159.946 74.7397 159.155 74.8925C161.122 73.1725 167.735 62.1471 166.552 54.7773C165.161 54.934 163.77 55.0908 162.379 55.2475C162.229 54.5892 161.907 53.9824 161.447 53.4883C161.503 54.1289 161.422 54.7742 161.208 55.3807C160.628 55.4473 160.044 55.51 159.464 55.5766C158.657 55.6667 157.78 55.7451 157.086 55.3219C155.93 54.6167 155.895 52.9476 156.224 51.6311C157.188 47.8032 160.111 44.6022 163.688 42.9253C167.265 41.2522 168.323 44.9783 172.092 43.7872C179.536 41.4364 185.241 45.4563 187.251 52.9163C188.94 59.1734 187.713 65.8144 185.989 72.0833Z" fill="#2F2E41"/>
<path d="M218.167 271.281H203.935L203.874 271.17C203.692 270.84 203.516 270.49 203.352 270.131C201.886 266.992 201.266 263.403 200.72 260.236L200.308 257.848C200.258 257.559 200.296 257.262 200.416 256.994C200.536 256.727 200.733 256.501 200.983 256.346C201.232 256.191 201.521 256.114 201.815 256.125C202.108 256.136 202.391 256.234 202.628 256.406C204.791 257.98 206.955 259.553 209.119 261.123C209.939 261.72 210.875 262.41 211.771 263.156C211.858 262.736 211.948 262.314 212.039 261.899C212.101 261.612 212.248 261.35 212.46 261.147C212.672 260.944 212.939 260.809 213.229 260.759C213.518 260.709 213.816 260.747 214.084 260.867C214.351 260.987 214.577 261.184 214.732 261.433L216.398 264.109C217.612 266.062 218.684 267.988 218.466 270.064C218.467 270.089 218.465 270.115 218.46 270.139C218.416 270.48 218.335 270.816 218.218 271.139L218.167 271.281Z" fill="#F0F0F0"/>
<path d="M232.452 271.589L97.2109 271.72C97.076 271.72 96.9467 271.666 96.8515 271.57C96.7563 271.474 96.7029 271.345 96.7029 271.21C96.7029 271.075 96.7563 270.945 96.8515 270.85C96.9467 270.754 97.076 270.7 97.2109 270.699L232.452 270.567C232.587 270.568 232.716 270.622 232.812 270.718C232.907 270.814 232.96 270.943 232.96 271.078C232.96 271.213 232.907 271.342 232.812 271.438C232.716 271.534 232.587 271.588 232.452 271.589Z" fill="#CACACA"/>
<path d="M109.662 81.2284L94.7858 68.6657C94.2774 68.2354 93.9604 67.6209 93.9044 66.9571C93.8484 66.2933 94.0581 65.6343 94.4873 65.1249L97.2253 61.8828C97.6556 61.3743 98.2702 61.0573 98.934 61.0013C99.5978 60.9454 100.257 61.155 100.766 61.5843L115.642 74.1469C116.151 74.5773 116.468 75.1918 116.524 75.8556C116.579 76.5194 116.37 77.1783 115.941 77.6878L113.203 80.9299C112.772 81.4384 112.158 81.7554 111.494 81.8113C110.83 81.8673 110.171 81.6577 109.662 81.2284Z" fill="#3F3D56"/>
<path d="M95.5662 65.3862C95.3349 65.6607 95.222 66.0158 95.2521 66.3735C95.2823 66.7312 95.4531 67.0623 95.7271 67.2943L110.603 79.857C110.878 80.0883 111.233 80.2012 111.59 80.171C111.948 80.1409 112.279 79.9701 112.511 79.6961L115.249 76.454C115.48 76.1794 115.593 75.8244 115.563 75.4666C115.533 75.1089 115.362 74.7778 115.088 74.5459L100.212 61.9832C99.9377 61.7519 99.5827 61.6389 99.225 61.6691C98.8673 61.6993 98.5361 61.8701 98.3042 62.1441L95.5662 65.3862Z" fill="white"/>
<path d="M104.3 70.2697C104.248 70.3419 104.18 70.4012 104.102 70.4427C104.023 70.4842 103.936 70.5068 103.847 70.5089L101.51 70.5625C101.435 70.5643 101.36 70.5512 101.29 70.524C101.22 70.4969 101.156 70.4562 101.102 70.4043C101.048 70.3525 101.004 70.2904 100.974 70.2217C100.943 70.153 100.927 70.079 100.925 70.0039C100.923 69.9288 100.937 69.8541 100.964 69.7841C100.991 69.714 101.032 69.65 101.083 69.5957C101.135 69.5414 101.197 69.4978 101.266 69.4675C101.335 69.4372 101.409 69.4207 101.484 69.419L103.013 69.3838L101.507 65.4103C101.454 65.2686 101.459 65.1115 101.521 64.9734C101.584 64.8354 101.698 64.7278 101.84 64.6741C101.981 64.6204 102.138 64.6251 102.277 64.6871C102.415 64.7491 102.523 64.8634 102.577 65.0049L104.369 69.7344C104.402 69.8199 104.413 69.912 104.403 70.0029C104.392 70.0937 104.36 70.1808 104.309 70.2567L104.3 70.2697Z" fill="#17456B"/>
<path d="M104.599 71.2685C105.163 71.3513 105.702 71.5567 106.178 71.8702C106.653 72.1838 107.055 72.5978 107.353 73.0832C107.651 73.5686 107.84 74.1135 107.905 74.6796C107.97 75.2457 107.91 75.8191 107.73 76.3596L118.702 84.812L111.897 87.1541L102.52 78.7685C101.632 78.405 100.909 77.7285 100.486 76.8672C100.064 76.0058 99.9721 75.0195 100.228 74.095C100.485 73.1705 101.071 72.3722 101.877 71.8512C102.682 71.3303 103.651 71.123 104.599 71.2685Z" fill="#FFB6B6"/>
<path d="M161.726 75.4478L133.632 92.7209C133.632 92.7209 122.305 88.5299 124.519 86.5897C126.733 84.6495 119.685 83.3379 119.685 83.3379L111.9 78.1003L107.383 83.3504C107.383 83.3504 108.206 91.8782 109.606 90.4016C111.007 88.925 113.1 92.9587 113.1 92.9587C113.1 92.9587 113.719 97.4627 117.706 96.3293C121.693 95.1958 132.391 107.076 132.391 107.076L166.966 94.1813L161.726 75.4478Z" fill="#3F3D56"/>
<path d="M111.014 58.3014C110.689 58.3014 110.367 58.2255 110.076 58.0798C109.785 57.9341 109.531 57.7226 109.336 57.462L104.191 50.6015C104.025 50.3811 103.905 50.1303 103.837 49.8634C103.768 49.5965 103.753 49.3188 103.792 49.0461C103.831 48.7733 103.924 48.511 104.064 48.2739C104.204 48.0368 104.39 47.8298 104.61 47.6645C105.056 47.3306 105.615 47.1873 106.166 47.266C106.439 47.305 106.701 47.3973 106.938 47.5377C107.175 47.678 107.382 47.8637 107.547 48.0841L110.914 52.5721L119.559 39.6037C119.868 39.1407 120.348 38.8193 120.894 38.7102C121.439 38.6011 122.006 38.7131 122.469 39.0218C122.932 39.3304 123.253 39.8104 123.362 40.356C123.471 40.9016 123.359 41.4682 123.051 41.9311L112.76 57.3671C112.574 57.6463 112.324 57.8767 112.03 58.0392C111.736 58.2016 111.408 58.2913 111.073 58.3007C111.053 58.301 111.034 58.3014 111.014 58.3014Z" fill="white"/>
</g>
<defs>
<clipPath id="clip0_1355_10784">
<rect width="232.96" height="271.72" fill="white"/>
</clipPath>
</defs>
</svg>
